<?xml version="1.0" encoding="iso-8859-1"?>
<!-- Generator: Adobe Illustrator 19.0.0, SVG Export Plug-In . SVG Version: 6.00 Build 0)  -->
<svg xmlns="http://www.w3.org/2000/svg" xmlns:xlink="http://www.w3.org/1999/xlink" version="1.1" id="Layer_1" x="0px" y="0px" viewBox="0 0 502 502" style="enable-background:new 0 0 502 502;" xml:space="preserve" width="512" height="512">
<g>
	<g>
		<ellipse style="fill:#E6E6E6;" cx="251" cy="428.004" rx="241" ry="57.216"/>
		<path style="fill:#E6E6E6;" d="M403.175,214.766c-0.002-0.007-0.003-0.014-0.004-0.021H98.83    c-2.531,11.153-3.873,22.757-3.873,34.677c0,132.415,69.863,178.582,156.043,178.582c58.086,0,108.754-20.979,135.62-75.197    c5.057,1.167,10.315,1.804,15.722,1.804c38.561,0,69.933-31.372,69.933-69.933C472.276,246.396,441.352,215.215,403.175,214.766z     M402.343,322.334c-1.401,0-2.782-0.083-4.143-0.233c5.721-20.641,8.844-44.732,8.844-72.68c0-0.702-0.02-1.4-0.03-2.1    c18.566,2.309,32.985,18.176,32.985,37.356C439.999,305.441,423.106,322.334,402.343,322.334z"/>
	</g>
	<g>
		<path d="M462.552,389.736c-18.798-7.578-44.377-14.057-74.574-18.938c1.407-2.238,2.78-4.514,4.086-6.86    c3.421,0.447,6.857,0.673,10.279,0.673c44.075,0,79.933-35.857,79.933-79.933c0-43.324-35.062-79.025-78.303-79.9    c-0.266-0.021-0.533-0.032-0.803-0.032H98.83c-4.67,0-8.719,3.232-9.752,7.787c-2.734,12.053-4.121,24.464-4.121,36.889    c0,49.992,9.756,90.654,29.041,121.379c-30.299,4.899-55.946,11.41-74.756,19.021C13.203,400.355,0,413.202,0,428.004    c0,20.971,26.336,37.856,78.277,50.188C124.53,489.172,185.871,495.22,251,495.22s126.47-6.048,172.723-17.028    C475.664,465.86,502,448.975,502,428.004C502,413.164,488.728,400.289,462.552,389.736z M107.038,224.745h295.495    c0.174,0.011,0.349,0.018,0.523,0.02c32.653,0.386,59.219,27.262,59.219,59.913c0,33.047-26.886,59.933-59.933,59.933    c-4.49,0-9.023-0.521-13.475-1.548c-4.508-1.038-9.151,1.153-11.208,5.305c-22.896,46.207-65.511,69.637-126.66,69.637    c-66.624,0-146.043-29.247-146.043-168.583C104.957,241.143,105.655,232.874,107.038,224.745z M419.103,458.732    C374.318,469.364,314.618,475.22,251,475.22s-123.318-5.855-168.103-16.487C33.146,446.921,20,433.468,20,428.004    c0-4.07,7.004-11.657,26.743-19.645c19.513-7.894,47.395-14.578,80.771-19.39c1.965,2.233,3.995,4.398,6.095,6.487    c28.377,28.232,67.873,42.547,117.392,42.547c53.083,0,95.076-16.818,123.459-49.039c33.281,4.797,61.098,11.453,80.615,19.321    C474.948,416.298,482,423.915,482,428.004C482,433.468,468.854,446.921,419.103,458.732z"/>
		<path d="M397.108,332.042c1.766,0.193,3.527,0.292,5.234,0.292c26.277,0,47.656-21.379,47.656-47.656    c0-23.993-17.949-44.319-41.751-47.28c-2.874-0.353-5.754,0.547-7.907,2.476s-3.366,4.696-3.326,7.588c0,0,0.029,1.563,0.029,1.96    c0,26.153-2.854,49.707-8.481,70.01c-0.783,2.825-0.287,5.853,1.358,8.28C391.565,330.139,394.193,331.722,397.108,332.042z     M416.857,261.146c7.934,4.905,13.142,13.687,13.142,23.532c0,12.154-7.882,22.502-18.802,26.203    C414.39,295.592,416.284,278.949,416.857,261.146z"/>
		<path d="M193.618,387.881c1.39,0.663,2.855,0.977,4.3,0.977c3.733,0,7.316-2.101,9.032-5.695    c2.378-4.984,0.266-10.953-4.719-13.332c-22.309-10.646-38.458-28.897-47.998-54.249c-1.945-5.169-7.71-7.782-12.882-5.837    c-5.169,1.945-7.782,7.713-5.837,12.882C146.938,352.979,166.486,374.934,193.618,387.881z"/>
		<path d="M137.068,291.369c5.475-0.727,9.324-5.753,8.598-11.229c-0.699-5.272-1.22-10.818-1.546-16.483    c-0.317-5.514-5.038-9.722-10.559-9.408c-5.514,0.317-9.726,5.045-9.408,10.559c0.354,6.157,0.922,12.201,1.687,17.964    c0.667,5.028,4.962,8.686,9.9,8.686C136.179,291.457,136.622,291.429,137.068,291.369z"/>
		<path d="M201.688,111.142c-5.522,0-10,4.478-10,10c0,32.507,26.446,58.953,58.953,58.953c5.522,0,10-4.478,10-10s-4.478-10-10-10    c-21.479,0-38.953-17.475-38.953-38.953C211.688,115.619,207.211,111.142,201.688,111.142z"/>
		<path d="M270.008,75.195c21.479,0,38.953,17.475,38.953,38.953c0,5.522,4.478,10,10,10s10-4.478,10-10    c0-32.507-26.446-58.953-58.953-58.953c-5.522,0-10,4.478-10,10S264.485,75.195,270.008,75.195z"/>
		<path d="M152.735,26.78c21.479,0,38.953,17.475,38.953,38.953c0,5.522,4.478,10,10,10s10-4.478,10-10    c0-32.507-26.446-58.953-58.953-58.953c-5.522,0-10,4.478-10,10S147.213,26.78,152.735,26.78z"/>
	</g>
</g>















</svg>
